<svg width="70" height="70" viewBox="0 0 70 70" fill="none" xmlns="http://www.w3.org/2000/svg">
<path d="M39.375 45.2521V52.5C39.375 53.6603 39.8359 54.7731 40.6564 55.5936C41.4769 56.4141 42.5897 56.875 43.75 56.875H48.125C48.8991 56.8749 49.6655 57.0289 50.3794 57.3279C51.0934 57.627 51.7407 58.0652 52.2837 58.6169C52.8266 59.1687 53.2543 59.823 53.5418 60.5417C53.8293 61.2604 53.9709 62.0292 53.9583 62.8031C53.9402 63.1754 53.7778 63.526 53.5056 63.7805C53.2333 64.0351 52.8726 64.1736 52.5 64.1667H17.5C17.1274 64.1736 16.7667 64.0351 16.4944 63.7805C16.2222 63.526 16.0598 63.1754 16.0417 62.8031C16.0291 62.0292 16.1707 61.2604 16.4582 60.5417C16.7457 59.823 17.1734 59.1687 17.7163 58.6169C18.2593 58.0652 18.9066 57.627 19.6206 57.3279C20.3345 57.0289 21.1009 56.8749 21.875 56.875H26.25C27.4103 56.875 28.5231 56.4141 29.3436 55.5936C30.1641 54.7731 30.625 53.6603 30.625 52.5V45.2521C30.625 44.8653 30.7786 44.4944 31.0521 44.2209C31.3256 43.9474 31.6966 43.7938 32.0833 43.7938H37.9167C38.3034 43.7938 38.6744 43.9474 38.9479 44.2209C39.2214 44.4944 39.375 44.8653 39.375 45.2521Z" fill="#FFC75D"/>
<path d="M37.9166 43.7938H32.0833C31.6965 43.7938 31.3256 43.9474 31.0521 44.2209C30.7786 44.4944 30.625 44.8653 30.625 45.2521V52.5C30.6194 52.985 30.5327 53.4656 30.3683 53.9219C33.374 54.9286 36.6259 54.9286 39.6316 53.9219C39.4672 53.4656 39.3805 52.985 39.375 52.5V45.2521C39.375 44.8653 39.2213 44.4944 38.9478 44.2209C38.6743 43.9474 38.3034 43.7938 37.9166 43.7938Z" fill="#EF9943"/>
<path d="M44.0227 45.7144C41.4529 47.7434 38.2742 48.847 35 48.847C31.7257 48.847 28.547 47.7434 25.9773 45.7144C21.0904 41.8542 16.0416 35.8167 16.0416 27.3569V8.75001C16.0416 7.97646 16.3489 7.2346 16.8959 6.68762C17.4429 6.14063 18.1847 5.83334 18.9583 5.83334H51.0416C51.8152 5.83334 52.557 6.14063 53.104 6.68762C53.651 7.2346 53.9583 7.97646 53.9583 8.75001V27.3569C53.9583 35.8167 48.9095 41.8542 44.0227 45.7144Z" fill="#FFC75D"/>
<path d="M31.8106 41.3394C26.9237 37.4792 21.875 31.4417 21.875 22.9819V5.83334H18.9583C18.1847 5.83334 17.4429 6.14063 16.8959 6.68762C16.3489 7.2346 16.0416 7.97646 16.0416 8.75001V27.3569C16.0416 35.8152 21.0904 41.8527 25.9773 45.7144C28.547 47.7434 31.7257 48.847 35 48.847C38.2742 48.847 41.4529 47.7434 44.0227 45.7144C45.0443 44.9068 46.0182 44.0406 46.9393 43.12C44.4992 44.2495 41.7939 44.6811 39.1234 44.3668C36.453 44.0525 33.9218 43.0046 31.8106 41.3394Z" fill="#EF9943"/>
<path d="M35 31.1908L29.5925 33.1129L29.75 27.3758L26.25 22.8273L31.7552 21.2042L35 16.4704L38.2448 21.2042L43.75 22.8273L40.25 27.3758L40.4075 33.1129L35 31.1908Z" fill="#994FF3"/>
<path d="M44.9269 46.8577C47.7022 44.7173 50.085 42.1115 51.9692 39.1562C54.3725 38.2988 63.6548 33.8479 64.1652 16.1146C64.1773 15.7278 64.1109 15.3426 63.97 14.9822C63.8291 14.6218 63.6168 14.2936 63.3456 14.0175C63.0732 13.7369 62.7475 13.5134 62.3877 13.3602C62.0279 13.2069 61.6411 13.127 61.25 13.125H55.4167V8.75C55.4167 7.58968 54.9557 6.47688 54.1353 5.65641C53.3148 4.83594 52.202 4.375 51.0417 4.375H18.9583C17.798 4.375 16.6852 4.83594 15.8647 5.65641C15.0443 6.47688 14.5833 7.58968 14.5833 8.75V13.125H8.75C8.35853 13.1261 7.9712 13.2053 7.61064 13.3578C7.25008 13.5103 6.92351 13.733 6.65 14.0131C6.37961 14.2896 6.16788 14.6179 6.02754 14.9783C5.88721 15.3387 5.82115 15.7237 5.83333 16.1102C6.34375 33.8479 15.626 38.2988 18.0294 39.1519C19.9136 42.1071 22.2963 44.7129 25.0717 46.8533C26.3139 47.8325 27.6938 48.6232 29.1667 49.1998V52.5C29.1667 53.2735 28.8594 54.0154 28.3124 54.5624C27.7654 55.1094 27.0236 55.4167 26.25 55.4167H21.875C19.9418 55.419 18.0885 56.188 16.7216 57.5549C15.3546 58.9219 14.5857 60.7752 14.5833 62.7083C14.5833 63.4819 14.8906 64.2238 15.4376 64.7707C15.9846 65.3177 16.7265 65.625 17.5 65.625H52.5C53.2735 65.625 54.0154 65.3177 54.5624 64.7707C55.1094 64.2238 55.4167 63.4819 55.4167 62.7083C55.4144 60.7752 54.6454 58.9219 53.2784 57.5549C51.9115 56.188 50.0582 55.419 48.125 55.4167H43.75C42.9765 55.4167 42.2346 55.1094 41.6876 54.5624C41.1406 54.0154 40.8333 53.2735 40.8333 52.5V49.1998C42.3055 48.6244 43.6848 47.8352 44.9269 46.8577ZM61.25 16.0271C60.9365 26.9077 57.1404 32.1154 54.1888 34.5333C55.0003 32.2277 55.4155 29.8012 55.4167 27.3569V16.0417L61.25 16.0271ZM8.75 16.0417H14.5833V27.3569C14.5839 29.8013 14.9991 32.2278 15.8113 34.5333C12.8581 32.114 9.065 26.9092 8.75 16.0417ZM17.5 27.3569V8.75C17.5 8.36323 17.6536 7.99229 17.9271 7.7188C18.2006 7.44531 18.5716 7.29167 18.9583 7.29167H51.0417C51.4284 7.29167 51.7994 7.44531 52.0729 7.7188C52.3464 7.99229 52.5 8.36323 52.5 8.75V27.3569C52.5 33.8596 49.3427 39.6506 43.1171 44.5652C40.8087 46.3984 37.9478 47.3962 35 47.3962C32.0522 47.3962 29.1913 46.3984 26.8829 44.5652C20.6573 39.6506 17.5 33.8596 17.5 27.3569ZM43.75 58.3333H48.125C49.2853 58.3333 50.3981 58.7943 51.2186 59.6147C52.0391 60.4352 52.5 61.548 52.5 62.7083H17.5C17.5 61.548 17.9609 60.4352 18.7814 59.6147C19.6019 58.7943 20.7147 58.3333 21.875 58.3333H26.25C27.7971 58.3333 29.2808 57.7188 30.3748 56.6248C31.4688 55.5308 32.0833 54.0471 32.0833 52.5V50.0412C34.0099 50.4146 35.9901 50.4146 37.9167 50.0412V52.5C37.9167 54.0471 38.5313 55.5308 39.6252 56.6248C40.7192 57.7188 42.2029 58.3333 43.75 58.3333Z" fill="#09105A"/>
<path d="M39.9189 34.4881C40.1422 34.5676 40.3814 34.5914 40.6159 34.5576C40.8505 34.5238 41.0733 34.4334 41.265 34.2942C41.4568 34.1549 41.6118 33.9709 41.7165 33.7582C41.8211 33.5455 41.8724 33.3105 41.8658 33.0735L41.72 27.8542L44.9035 23.7169C45.048 23.5292 45.1446 23.3091 45.185 23.0757C45.2253 22.8423 45.2082 22.6026 45.1351 22.3773C45.062 22.152 44.9351 21.9479 44.7654 21.7826C44.5958 21.6173 44.3884 21.4959 44.1612 21.4287L39.1533 19.9514L36.2016 15.645C36.0604 15.46 35.8783 15.31 35.6696 15.2068C35.461 15.1036 35.2313 15.0499 34.9985 15.0499C34.7657 15.0499 34.5361 15.1036 34.3274 15.2068C34.1187 15.31 33.9367 15.46 33.7954 15.645L30.8437 19.9514L25.8358 21.4287C25.6087 21.4959 25.4013 21.6173 25.2316 21.7826C25.0619 21.9479 24.935 22.152 24.8619 22.3773C24.7888 22.6026 24.7717 22.8423 24.8121 23.0757C24.8524 23.3091 24.949 23.5292 25.0935 23.7169L28.2785 27.8542L28.1327 33.0735C28.1261 33.3105 28.1773 33.5454 28.2819 33.7581C28.3866 33.9708 28.5415 34.1547 28.7332 34.294C28.925 34.4334 29.1478 34.5238 29.3824 34.5577C29.617 34.5915 29.8563 34.5676 30.0796 34.4881L35 32.7381L39.9189 34.4881ZM31.1091 31.026L31.2083 27.4167C31.2187 27.0813 31.1119 26.7529 30.9064 26.4877L28.7029 23.625L32.1679 22.6042C32.4896 22.5092 32.7688 22.3063 32.9583 22.0296L35 19.0502L37.0416 22.0281C37.2312 22.3048 37.5103 22.5078 37.8321 22.6027L41.2971 23.6235L39.095 26.4862C38.8895 26.7514 38.7827 27.0799 38.7931 27.4152L38.8908 31.026L35.4885 29.8156C35.1723 29.7048 34.8277 29.7048 34.5114 29.8156L31.1091 31.026Z" fill="#09105A"/>
</svg>
